<svg width="14" height="10" viewBox="0 0 14 10" fill="none" xmlns="http://www.w3.org/2000/svg">
<path d="M4.11578 7.93028L1.27103 5.08553C1.12958 4.94891 0.94013 4.87332 0.743483 4.87503C0.546835 4.87674 0.358726 4.95561 0.21967 5.09467C0.0806139 5.23373 0.00173717 5.42183 2.8352e-05 5.61848C-0.00168046 5.81513 0.0739153 6.00458 0.210534 6.14603L3.58553 9.52103C3.72618 9.66164 3.91691 9.74062 4.11578 9.74062C4.31466 9.74062 4.50539 9.66164 4.64603 9.52103L12.896 1.27103C13.0327 1.12958 13.1082 0.94013 13.1065 0.743483C13.1048 0.546835 13.026 0.358726 12.8869 0.21967C12.7478 0.080614 12.5597 0.00173717 12.3631 2.83518e-05C12.1664 -0.00168046 11.977 0.0739156 11.8355 0.210534L4.11578 7.93028Z" fill="#ffffff"/>
</svg>
