<svg width="20" height="20" xmlns="http://www.w3.org/2000/svg">

 <g>
  <title>background</title>
  <rect fill="none" id="canvas_background" height="514" width="514" y="-1" x="-1"/>
 </g>
 <g>
  <title>Layer 1</title>
  <rect stroke="null" id="svg_4" height="13.562501" width="12.1875" y="3.375" x="3.8125" stroke-opacity="null" stroke-width="NaN" fill="#ffffff"/>
  <path id="svg_1" fill="#FDBA4D" d="m10,0c-5.52285,0 -10,4.47715 -10,10c0,5.5229 4.47715,10 10,10c5.5229,0 10,-4.4771 10,-10c0,-5.52285 -4.4771,-10 -10,-10zm-1.55152,3.73902l3.10302,0l0,0.95703l3.6182,0l0,1.76147l-10.33938,0l0,-1.76147l3.61816,0l0,-0.95703l0,0zm-3.06273,4.05883l9.22855,0l0,8.46315l-9.22855,0l0,-8.46315z"/>
  <path stroke="null" d="m5.5625,5.59082c0.25,0.125 0.88107,0.424911 2.1875,1.0625c1.130356,0.551658 2.052543,1.145995 2.5625,1.375c0.61407,0.275758 1.0625,0.5 1.5,0.8125c0.4375,0.3125 0.714159,0.540524 1.0625,0.8125c0.28725,0.224277 0.671502,0.360637 1.125,0.6875c0.215113,0.155045 0.387925,0.425791 0.5,0.5625c0.142867,0.174271 0.179853,0.254126 0.25,0.375c0.113108,0.194905 0.198318,0.303296 0.25,0.375c0.081716,0.113375 0.125,0.1875 0.125,0.25l0,0.0625" id="svg_3" stroke-opacity="null" stroke-width="NaN" fill="none"/>
 </g>
</svg>