<svg width="181" height="114" viewBox="0 0 181 114" fill="none" xmlns="http://www.w3.org/2000/svg">
<path fill-rule="evenodd" clip-rule="evenodd" d="M86.9711 113.39H15.5671V64.2829C15.5671 53.3798 24.4179 44.5494 35.3462 44.5494H67.192C78.1203 44.5494 86.9711 53.3798 86.9711 64.2829V113.39Z" fill="#5D80CB"/>
<path fill-rule="evenodd" clip-rule="evenodd" d="M103.862 53.9761C103.904 46.8493 101.229 35.9604 71.8024 41.3836C56.7333 44.0526 55.4953 50.6966 58.7254 57.0852C52.877 60.0097 42.3045 66.8384 33.1406 81.0209C19.6226 101.919 32.6711 113.461 40.355 113.461C48.039 113.461 133.488 112.793 133.488 112.793C133.488 112.793 136.817 79.9136 103.862 53.9761Z" fill="#FDBA4D"/>
<path fill-rule="evenodd" clip-rule="evenodd" d="M68.188 49.788L65.1145 52.9397C65.1145 52.9397 79.7424 64.0416 84.4951 90.7741C87.5829 108.151 86.5299 110.096 86.5299 110.096L95.5942 109.613C95.5942 109.613 90.5427 80.7228 93.6874 71.5801C96.8321 62.4374 93.9578 52.1731 91.8233 50.5121C89.6889 48.8511 68.188 49.788 68.188 49.788Z" fill="white"/>
<path fill-rule="evenodd" clip-rule="evenodd" d="M71.7454 40.8725L71.4039 46.7215L68.5011 50.0436C68.5011 50.0436 77.0815 55.339 85.292 64.6662C85.292 64.6662 92.0083 57.5963 93.1894 46.5086L77.4515 48.4535L76.2135 42.3205L71.7454 40.8725Z" fill="white"/>
<path fill-rule="evenodd" clip-rule="evenodd" d="M71.3193 40.8477L70.9863 46.5512L68.1793 49.7637C68.0062 49.9618 68.0525 50.2675 68.2766 50.4058L68.363 50.4601L68.5739 50.595L68.6226 50.6266C68.9084 50.8121 69.2405 51.0333 69.6148 51.2898C70.645 51.9956 71.789 52.8257 73.0196 53.776L73.1677 53.8907C76.846 56.7444 80.5247 60.0653 83.9573 63.8175C84.2991 64.1912 84.6372 64.5678 84.9713 64.9473C85.137 65.1356 85.4291 65.1411 85.6018 64.9593L85.6828 64.8715L85.7681 64.7766C85.8274 64.7098 85.8927 64.6351 85.9634 64.5525C86.2449 64.2239 86.5577 63.8366 86.8941 63.3924C87.853 62.1262 88.811 60.6559 89.7049 58.9967C91.7359 55.2268 93.1343 51.0558 93.6139 46.5536L93.6158 46.5289C93.6288 46.2672 93.4015 46.0532 93.1369 46.0859L77.7917 47.9822L76.632 42.2365C76.6016 42.0857 76.492 41.963 76.3454 41.9155L71.8773 40.4674C71.6114 40.3812 71.3356 40.5692 71.3193 40.8477ZM72.1393 41.4479L75.8443 42.6486L77.033 48.5376L77.0388 48.5625C77.0929 48.7671 77.2909 48.9026 77.504 48.8762L92.7033 46.9978L92.6999 47.0256C92.1798 51.1965 90.8493 55.0731 88.9528 58.5934C88.0806 60.2124 87.1463 61.6463 86.2129 62.8789L86.1434 62.9702L86.0068 63.1477C85.7815 63.4378 85.5693 63.699 85.3728 63.9305L85.2927 64.0242L85.1033 63.812C84.9324 63.6217 84.7606 63.4321 84.5879 63.2433C81.1204 59.4529 77.4063 56.1 73.6917 53.2182C72.3912 52.2092 71.183 51.3309 70.0981 50.5876L69.825 50.4016C69.6123 50.2576 69.4147 50.1261 69.2331 50.0071L69.148 49.9513L71.7257 47.0014C71.7879 46.9303 71.8246 46.8406 71.8301 46.7463L72.1393 41.4479Z" fill="#5D80CB"/>
<path fill-rule="evenodd" clip-rule="evenodd" d="M93.7159 96.2256C96.0353 96.7651 97.8994 97.2762 98.4116 97.6595C100.076 98.923 107.006 105.681 107.248 106.788C107.504 107.895 105.469 108.506 103.79 106.802L98.8528 102.103C98.8528 102.103 103.876 107.81 104.274 108.69C104.673 109.571 102.695 111.104 99.7919 107.427C96.8891 103.75 96.4195 103.722 96.4195 103.722C96.4195 103.722 99.735 108.335 100.176 109.386C100.617 110.437 97.814 111.416 95.2527 106.575L79.899 105.908L80.7955 93.7412C80.8097 93.7412 88.451 95.0189 93.7159 96.2256Z" fill="white"/>
<path fill-rule="evenodd" clip-rule="evenodd" d="M80.7954 93.3153C81.1727 93.3153 89.302 94.8006 93.4394 95.7263L93.8128 95.8109L94.3678 95.9415C96.7306 96.5044 98.1322 96.9336 98.6508 97.3064L98.6701 97.3205L98.729 97.3658C99.6101 98.0506 101.682 99.9858 103.601 101.916L104.017 102.336C106.188 104.543 107.535 106.101 107.664 106.692C107.855 107.517 107.223 108.167 106.293 108.272C105.585 108.353 104.799 108.125 104.086 107.616L104.021 107.568L104.096 107.668C104.374 108.035 104.56 108.307 104.645 108.477L104.663 108.515C105.02 109.304 104.316 110.15 103.289 110.193C102.396 110.23 101.373 109.726 100.307 108.656L100.225 108.572L100.244 108.605C100.379 108.834 100.48 109.022 100.545 109.165L100.57 109.221C100.759 109.673 100.601 110.145 100.194 110.423C99.8268 110.672 99.3055 110.738 98.7416 110.604C97.4886 110.307 96.1706 109.117 95.0166 107.035L94.9919 106.99L79.8804 106.333C79.6482 106.323 79.4684 106.13 79.4721 105.901L79.4732 105.877L80.3697 93.71C80.3861 93.4875 80.5718 93.3153 80.7954 93.3153ZM81.1869 94.2353L80.3569 105.501L95.2713 106.15C95.4133 106.156 95.5423 106.232 95.6162 106.352L95.6302 106.376C96.7122 108.421 97.9061 109.531 98.939 109.776C99.5584 109.922 99.854 109.721 99.7824 109.551C99.6272 109.181 99.0206 108.221 98.121 106.899L97.9693 106.676C97.6064 106.146 97.2205 105.591 96.8318 105.039L96.3872 104.41L96.0726 103.97C95.8631 103.678 96.0865 103.275 96.4453 103.296C96.8448 103.321 97.7514 104.183 99.7951 106.745L100.127 107.163C101.341 108.701 102.444 109.376 103.253 109.342C103.73 109.322 103.964 109.041 103.885 108.866L103.873 108.841C103.701 108.504 102.781 107.345 101.415 105.728L101.25 105.532L100.889 105.107C100.523 104.678 100.144 104.238 99.7632 103.797L99.1637 103.106L98.532 102.384C98.1782 101.982 98.7357 101.437 99.1291 101.778L99.1474 101.795L104.095 106.504C104.774 107.193 105.558 107.499 106.197 107.426C106.671 107.372 106.892 107.144 106.831 106.879C106.652 106.058 100.179 99.536 98.1555 98.0002L98.1261 97.9794C97.7182 97.7043 96.3362 97.2867 94.1401 96.7631L93.6177 96.64L93.2027 96.546C91.1152 96.0768 88.5658 95.5692 85.779 95.0545L84.4793 94.8173C83.9783 94.727 83.4579 94.6344 82.9715 94.5484L81.1869 94.2353Z" fill="#5D80CB"/>
<path fill-rule="evenodd" clip-rule="evenodd" d="M53.8731 113.39C53.8731 113.39 78.5045 111.729 81.265 111.019C84.0256 110.309 83.001 108.293 85.0074 107.526C87.0138 106.76 87.6399 106.135 87.6399 106.135C85.0501 102.004 87.6399 95.1751 87.6399 95.1751C87.6399 95.1751 86.9568 94.9905 84.8651 94.5646C82.7734 94.1387 83.4421 91.9808 80.6105 91.7253C77.7646 91.484 53.3893 94.2523 53.3893 94.2523" fill="#FDBA4D"/>
<path fill-rule="evenodd" clip-rule="evenodd" d="M66.0978 92.4532L67.7568 92.2849C74.847 91.5724 79.4635 91.2006 80.6489 91.3011C82.0137 91.4243 82.6756 91.8749 83.3905 92.8727L83.5213 93.0585C84.0207 93.7703 84.307 94.0163 84.9504 94.1473L85.4236 94.2445C86.1204 94.3888 86.6859 94.5118 87.1327 94.6146L87.4193 94.6816L87.6548 94.7391C87.7014 94.7508 87.7332 94.7591 87.7514 94.764C87.9864 94.8275 88.119 95.0728 88.0475 95.3014L87.9931 95.4531L87.9594 95.5501C87.9304 95.6346 87.8993 95.7282 87.8664 95.8303C87.7344 96.2404 87.6023 96.7008 87.4788 97.2004C87.0619 98.8879 86.8455 100.591 86.9356 102.169C87.0187 103.625 87.3623 104.889 88.0018 105.909C88.1072 106.077 88.0823 106.296 87.9417 106.436L87.9171 106.46C87.8843 106.49 87.8372 106.53 87.7743 106.58C87.6492 106.678 87.4924 106.787 87.301 106.905C86.7879 107.223 86.1144 107.554 85.2595 107.886L85.16 107.924C84.5655 108.151 84.3204 108.424 83.9649 109.146L83.8254 109.434L83.7711 109.543C83.2527 110.562 82.6548 111.101 81.3715 111.431L81.3117 111.446C80.288 111.689 76.9798 112.036 71.8309 112.471L70.4451 112.586C69.5768 112.657 68.6698 112.73 67.728 112.804L66.5339 112.898C64.2594 113.074 61.8825 113.25 59.4901 113.423L57.2437 113.583L54.6224 113.765L53.9019 113.815C53.6667 113.83 53.4631 113.653 53.4472 113.418C53.4319 113.192 53.5967 112.995 53.8194 112.967L56.6183 112.773L58.1619 112.664C60.9779 112.463 63.7938 112.255 66.4677 112.048L68.1706 111.915C69.183 111.835 70.153 111.756 71.0758 111.679L72.3708 111.57C77.1943 111.158 80.3155 110.823 81.1585 110.606C82.1984 110.339 82.6121 109.958 83.0342 109.109L83.2003 108.767C83.6348 107.887 84.0003 107.467 84.8029 107.149L84.8547 107.129C85.708 106.803 86.3655 106.482 86.851 106.181C86.9243 106.136 86.991 106.093 87.0511 106.052L87.0833 106.03L87.0445 105.958C86.4865 104.914 86.1796 103.691 86.0898 102.325L86.0832 102.217C85.9876 100.543 86.2142 98.7598 86.6499 96.9966C86.7675 96.5204 86.8929 96.0781 87.0191 95.6779L87.0835 95.4775L86.7002 95.3899C86.1966 95.2767 85.5612 95.1411 84.7797 94.9819C83.911 94.8051 83.4722 94.4517 82.8976 93.6536L82.7286 93.4141C82.1317 92.5678 81.6778 92.2492 80.5743 92.1497C79.4376 92.0533 74.5334 92.4545 67.1781 93.1994L65.8492 93.335C65.6246 93.3581 65.3984 93.3814 65.1708 93.405C63.0219 93.6273 60.8157 93.8624 58.6329 94.1L56.3456 94.3508L53.4376 94.6755C53.2034 94.7021 52.9918 94.5342 52.9652 94.3005C52.9395 94.0751 53.095 93.8708 53.3162 93.8327L53.3603 93.827L55.9334 93.5393C56.2482 93.5045 56.5733 93.4686 56.908 93.4318C59.3462 93.1636 61.8398 92.8954 64.2738 92.6417L65.0827 92.5577C65.4245 92.5224 65.7629 92.4875 66.0978 92.4532Z" fill="#5D80CB"/>
<path fill-rule="evenodd" clip-rule="evenodd" d="M54.6293 86.8851C54.6524 86.651 54.8614 86.4799 55.096 86.5029L55.1337 86.5072C55.1964 86.515 55.2865 86.5294 55.4005 86.5526C55.6259 86.5984 55.8753 86.6652 56.1427 86.757C56.9019 87.0176 57.6598 87.4264 58.3667 88.0155C59.7844 89.1971 60.8099 90.9462 61.2788 93.3474C61.3239 93.5783 61.1729 93.8019 60.9414 93.8469C60.71 93.8919 60.4859 93.7412 60.4408 93.5103C60.0091 91.2999 59.0855 89.7246 57.8193 88.6692C57.1967 88.1503 56.5301 87.7908 55.8649 87.5624C55.6337 87.4831 55.4201 87.4259 55.2301 87.3872L55.1409 87.3701C55.1145 87.3653 55.0913 87.3615 55.0717 87.3585L55.0123 87.3506C54.7777 87.3276 54.6062 87.1191 54.6293 86.8851Z" fill="#5D80CB"/>
<path fill-rule="evenodd" clip-rule="evenodd" d="M85.3347 107.81C87.4976 107.001 88.1948 106.348 88.1948 106.348C85.3916 101.975 88.1948 94.7492 88.1948 94.7492C88.1948 94.7492 87.4549 94.5504 85.1924 94.0961C84.2817 93.9116 83.8548 93.4289 83.4706 92.9036C78.8176 98.1706 81.6065 107.413 82.8587 110.763C83.9402 109.812 83.6983 108.435 85.3347 107.81Z" fill="#5D80CB"/>
<path fill-rule="evenodd" clip-rule="evenodd" d="M103.862 53.9761C103.847 55.3106 103.748 56.5031 103.705 57.4401C103.42 63.9848 100.247 67.463 98.9808 70.0752C103.179 67.4914 107.021 61.9263 108.913 58.2635C107.348 56.8154 105.654 55.3816 103.862 53.9761Z" fill="#5D80CB"/>
<path fill-rule="evenodd" clip-rule="evenodd" d="M73.0404 71.5091C70.7921 70.4727 62.1974 63.928 58.7254 57.0994C56.4771 58.2209 53.5316 59.9246 50.2303 62.409C52.6636 63.8003 66.6655 71.6511 73.083 71.5943C73.0688 71.5517 73.0546 71.5233 73.0404 71.5091Z" fill="#5D80CB"/>
<path fill-rule="evenodd" clip-rule="evenodd" d="M74.4302 68.9955C74.7047 68.8639 75.0324 68.9715 75.1764 69.2354L75.2063 69.2959L75.3218 69.5408L75.4272 69.7674C75.6001 70.1413 75.7911 70.5639 75.996 71.0289L76.0475 71.1461C76.6886 72.6066 77.3296 74.1704 77.9282 75.7756C78.5493 77.4411 79.0892 79.0577 79.5241 80.5913C80.0858 82.572 80.458 84.3627 80.6079 85.9214C80.6379 86.2336 80.4085 86.5109 80.0956 86.5409C79.7827 86.5708 79.5047 86.342 79.4747 86.0299C79.3321 84.5474 78.9733 82.8206 78.4288 80.9006C78.0028 79.3985 77.4724 77.8103 76.8613 76.1716C76.2708 74.588 75.6377 73.0437 75.0047 71.6017L74.854 71.2603C74.6896 70.89 74.5352 70.5497 74.3935 70.2431L74.2445 69.9235L74.1637 69.7533C74.0276 69.4706 74.1469 69.1313 74.4302 68.9955Z" fill="#5D80CB"/>
<path fill-rule="evenodd" clip-rule="evenodd" d="M96.6901 69.38C96.9868 69.4485 97.1752 69.7369 97.1222 70.0327L97.0492 70.3623L96.9814 70.6781C96.9462 70.8452 96.9088 71.0257 96.8698 71.2188C96.6838 72.1398 96.4977 73.1567 96.3241 74.2394C95.94 76.6338 95.6723 78.9972 95.5731 81.2024C95.495 82.9366 95.5249 84.5149 95.6762 85.8999C95.7103 86.2117 95.4845 86.4919 95.172 86.5259C94.8595 86.5599 94.5786 86.3347 94.5445 86.0229C94.3863 84.5745 94.3554 82.9398 94.4359 81.1514C94.5373 78.8985 94.8096 76.4938 95.2 74.06L95.2666 73.6512C95.4122 72.7726 95.5651 71.9406 95.7185 71.171L95.7539 70.9945C95.7936 70.7978 95.8316 70.6139 95.8677 70.4434L95.9591 70.0193L96.0073 69.8052C96.0781 69.4997 96.3839 69.3093 96.6901 69.38Z" fill="#5D80CB"/>
<path fill-rule="evenodd" clip-rule="evenodd" d="M141.641 48.0276H140.688C140.289 48.0276 139.976 47.7153 139.976 47.3178V45.5006C139.976 45.1031 140.289 44.7908 140.688 44.7908H141.641C142.039 44.7908 142.353 45.1031 142.353 45.5006V47.3178C142.353 47.7153 142.039 48.0276 141.641 48.0276Z" fill="#FED188"/>
<path fill-rule="evenodd" clip-rule="evenodd" d="M138.354 48.0276H123.47C123.071 48.0276 122.758 47.7153 122.758 47.3178V45.5006C122.758 45.1031 123.071 44.7908 123.47 44.7908H138.354C138.752 44.7908 139.066 45.1031 139.066 45.5006V47.3178C139.066 47.7153 138.752 48.0276 138.354 48.0276Z" fill="#5D80CB"/>
<path fill-rule="evenodd" clip-rule="evenodd" d="M139.834 63.0904H123.47C123.071 63.0904 122.758 62.7781 122.758 62.3806V60.5634C122.758 60.1659 123.071 59.8535 123.47 59.8535H139.834C140.232 59.8535 140.545 60.1659 140.545 60.5634V62.3806C140.545 62.7781 140.232 63.0904 139.834 63.0904Z" fill="#5D80CB"/>
<path fill-rule="evenodd" clip-rule="evenodd" d="M154.135 58.0789H127.966C127.568 58.0789 127.255 57.7666 127.255 57.3691V55.5519C127.255 55.1544 127.568 54.8421 127.966 54.8421H154.135C154.533 54.8421 154.846 55.1544 154.846 55.5519V57.3691C154.846 57.7666 154.519 58.0789 154.135 58.0789Z" fill="#FED188"/>
<path fill-rule="evenodd" clip-rule="evenodd" d="M170.584 58.0789H157.109C156.71 58.0789 156.397 57.7666 156.397 57.3691V55.5519C156.397 55.1544 156.71 54.8421 157.109 54.8421H170.584C170.982 54.8421 171.295 55.1544 171.295 55.5519V57.3691C171.295 57.7666 170.968 58.0789 170.584 58.0789Z" fill="#FED188"/>
<path fill-rule="evenodd" clip-rule="evenodd" d="M175.621 53.0675H174.668C174.269 53.0675 173.956 52.7552 173.956 52.3577V50.5405C173.956 50.143 174.269 49.8306 174.668 49.8306H175.621C176.02 49.8306 176.333 50.143 176.333 50.5405V52.3577C176.333 52.741 176.02 53.0675 175.621 53.0675Z" fill="#5D80CB"/>
<path fill-rule="evenodd" clip-rule="evenodd" d="M150.577 53.0533H123.47C123.071 53.0533 122.758 52.741 122.758 52.3435V50.5263C122.758 50.1288 123.071 49.8164 123.47 49.8164H150.577C150.976 49.8164 151.289 50.1288 151.289 50.5263V52.3435C151.289 52.741 150.961 53.0533 150.577 53.0533Z" fill="#5D80CB"/>
<path fill-rule="evenodd" clip-rule="evenodd" d="M159.001 48.0276H144.117C143.719 48.0276 143.406 47.7153 143.406 47.3178V45.5006C143.406 45.1031 143.719 44.7908 144.117 44.7908H159.001C159.4 44.7908 159.713 45.1031 159.713 45.5006V47.3178C159.713 47.7153 159.385 48.0276 159.001 48.0276Z" fill="#5D80CB"/>
<path fill-rule="evenodd" clip-rule="evenodd" d="M171.978 53.0675H153.281C152.882 53.0675 152.569 52.7552 152.569 52.3577V50.5121C152.569 50.1146 152.882 49.8022 153.281 49.8022H171.978C172.377 49.8022 172.69 50.1146 172.69 50.5121V52.3577C172.69 52.741 172.363 53.0675 171.978 53.0675Z" fill="#FDBA4D"/>
<path fill-rule="evenodd" clip-rule="evenodd" d="M150.748 113.248C151.474 113.248 152.1 112.751 152.27 112.041L160.865 75.7539C161.093 74.7743 160.353 73.8374 159.343 73.8374H104.018C103.292 73.8374 102.666 74.3342 102.496 75.0441L94.7973 107.526H74.7479C74.7479 107.526 73.638 113.248 80.1124 113.248" fill="#5D80CB"/>
<path fill-rule="evenodd" clip-rule="evenodd" d="M127.668 87.807C127.668 87.807 130.215 87.1965 130.371 89.3828C130.371 89.3828 128.351 90.2062 127.668 87.807Z" fill="white"/>
<path fill-rule="evenodd" clip-rule="evenodd" d="M132.321 93.4715C132.065 93.3011 131.794 93.1875 131.51 93.0882C131.865 92.7048 132.093 92.1938 132.093 91.6543C132.093 91.058 131.808 90.5895 131.382 90.3624C131.623 89.6383 132.022 88.602 132.321 88.2329C132.477 88.0483 132.449 87.7786 132.278 87.6366C132.093 87.4804 131.823 87.5088 131.68 87.6792C131.225 88.2045 130.755 89.5248 130.528 90.2204C130.514 90.2204 130.499 90.2204 130.485 90.2204C129.603 90.3766 128.891 91.2852 128.891 92.2364C128.891 92.5487 128.977 92.8184 129.105 93.0456C128.123 93.2869 127.155 93.8122 126.415 94.6072C124.807 96.3108 124.85 98.5823 126.501 99.6613C128.151 100.74 130.798 100.243 132.406 98.5255C134.014 96.8219 133.971 94.5504 132.321 93.4715Z" fill="white"/>
<path fill-rule="evenodd" clip-rule="evenodd" d="M23.3649 97.5885C21.0466 97.5885 19.1672 99.4636 19.1672 101.777C19.1672 104.09 21.0466 105.965 23.3649 105.965C25.6833 105.965 27.5626 104.09 27.5626 101.777C27.5626 99.4636 25.6833 97.5885 23.3649 97.5885ZM23.3649 98.4404C25.2117 98.4404 26.7089 99.934 26.7089 101.777C26.7089 103.619 25.2117 105.113 23.3649 105.113C21.5181 105.113 20.021 103.619 20.021 101.777C20.021 99.934 21.5181 98.4404 23.3649 98.4404Z" fill="white"/>
<path fill-rule="evenodd" clip-rule="evenodd" d="M35.8158 113.106H28.6156C26.2535 113.106 24.3468 111.203 24.3468 108.847V96.6657H40.0847V108.847C40.0847 111.203 38.1637 113.106 35.8158 113.106Z" fill="#FED188"/>
<path fill-rule="evenodd" clip-rule="evenodd" d="M27.5769 103.864L30.4228 102.16C30.4655 102.132 30.5082 102.117 30.5651 102.117C30.6505 102.117 30.7074 102.146 30.7643 102.203C30.8212 102.259 30.8497 102.33 30.8497 102.401C30.8497 102.501 30.807 102.586 30.7074 102.657L28.2599 104.119L30.7074 105.581C30.807 105.652 30.8497 105.723 30.8497 105.837C30.8497 105.922 30.8212 105.979 30.7643 106.036C30.7074 106.092 30.6362 106.121 30.5651 106.121C30.5082 106.121 30.4655 106.107 30.4228 106.078L27.5769 104.375C27.4773 104.304 27.4203 104.218 27.4203 104.119C27.4203 104.02 27.4773 103.935 27.5769 103.864Z" fill="#2E186A"/>
<path fill-rule="evenodd" clip-rule="evenodd" d="M33.8094 101.067C33.8663 101.01 33.9375 100.982 34.0086 100.982C34.0798 100.982 34.1509 101.01 34.2078 101.067C34.2648 101.124 34.2932 101.195 34.2932 101.265C34.2932 101.308 34.279 101.351 34.2648 101.393L31.9738 107.1C31.9596 107.129 31.9454 107.157 31.9169 107.186C31.86 107.242 31.7888 107.271 31.7177 107.271C31.6465 107.271 31.5754 107.242 31.5185 107.186C31.4615 107.129 31.4331 107.058 31.4331 106.987C31.4331 106.944 31.4473 106.902 31.4615 106.859L33.7525 101.152C33.7525 101.124 33.781 101.095 33.8094 101.067Z" fill="#2E186A"/>
<path fill-rule="evenodd" clip-rule="evenodd" d="M38.306 104.119C38.306 104.218 38.249 104.304 38.1494 104.375L35.3035 106.078C35.2608 106.107 35.2181 106.121 35.1612 106.121C35.0758 106.121 35.0189 106.092 34.962 106.036C34.9051 105.979 34.8766 105.908 34.8766 105.837C34.8766 105.737 34.9193 105.652 35.0189 105.581L37.4664 104.119L35.0189 102.657C34.9193 102.586 34.8766 102.515 34.8766 102.401C34.8766 102.316 34.9051 102.259 34.962 102.203C35.0189 102.146 35.0901 102.117 35.1612 102.117C35.2181 102.117 35.2608 102.132 35.3035 102.16L38.1494 103.864C38.249 103.935 38.306 104.02 38.306 104.119Z" fill="#2E186A"/>
<path fill-rule="evenodd" clip-rule="evenodd" d="M32.3011 92.3357C32.6995 96.6232 24.9587 86.657 26.0401 80.8932C27.1215 75.1293 31.2766 75.3564 33.0126 72.1054C34.0656 70.1462 33.9802 68.8685 33.7525 68.1587C33.6814 67.9315 33.9233 67.7186 34.1367 67.8321C36.1715 68.9395 41.4934 72.5455 39.7289 79.3741C36.8119 89.5248 31.49 83.6047 32.3011 92.3357Z" fill="white"/>
<path fill-rule="evenodd" clip-rule="evenodd" d="M69.7106 29.8132C69.7106 29.8132 64.2464 29.9126 65.2141 34.7963C66.1959 39.68 72.2435 36.8548 72.2435 36.8548L71.4324 29.9126L69.7106 29.8132Z" fill="white"/>
<path fill-rule="evenodd" clip-rule="evenodd" d="M69.7353 29.388C69.7245 29.3874 69.7136 29.3872 69.7028 29.3873L69.6447 29.389C69.4792 29.3954 69.2309 29.4172 68.9243 29.4649C68.3508 29.5541 67.7764 29.7065 67.2359 29.939C65.3052 30.7696 64.3012 32.385 64.7953 34.8788C65.2346 37.064 66.6528 38.0658 68.656 38.093C69.5 38.1044 70.392 37.943 71.2795 37.6679C71.5404 37.5871 71.7848 37.5011 72.0083 37.4144L72.1027 37.3772C72.2536 37.3169 72.363 37.2692 72.4245 37.2405C72.5909 37.1628 72.6887 36.9875 72.6675 36.8055L71.8564 29.8633C71.8324 29.6579 71.664 29.4993 71.457 29.4874L69.7353 29.388ZM69.7048 30.2394L71.0499 30.317L71.7824 36.5875L71.7853 36.5864C71.557 36.6776 71.3017 36.7691 71.0262 36.8545C70.2174 37.1052 69.4097 37.2513 68.6676 37.2412C67.0424 37.2192 65.9866 36.4734 65.6326 34.7125C65.2221 32.6404 65.9919 31.4018 67.5739 30.7212C68.0421 30.5198 68.5486 30.3854 69.0558 30.3065C69.2336 30.2788 69.3983 30.2602 69.5453 30.2489L69.6437 30.2422L69.7048 30.2394Z" fill="#5D80CB"/>
<path fill-rule="evenodd" clip-rule="evenodd" d="M85.292 14.4239C86.7292 14.3104 96.6045 13.6857 97.6859 21.9056C98.7674 30.1255 97.6005 39.1973 96.6898 43.3427C95.7792 47.4882 76.8681 45.5716 75.8009 45.2025C74.7337 44.8334 73.453 43.5841 73.453 43.5841L70.8632 30.9632C70.8774 30.9632 69.8102 15.7016 85.292 14.4239Z" fill="white"/>
<path fill-rule="evenodd" clip-rule="evenodd" d="M85.2583 13.9993C78.582 14.5503 74.3497 17.6556 72.1199 22.4725C71.3458 24.1447 70.8629 25.9285 70.614 27.7374C70.4537 28.9021 70.4093 29.9018 70.4287 30.7229L70.433 30.8735L70.4359 30.9512L70.4361 30.9726C70.4369 30.9976 70.4398 31.023 70.445 31.0485L73.0348 43.6695C73.0519 43.7528 73.0936 43.8291 73.1545 43.8886L73.2393 43.969L73.3225 44.0458C73.3663 44.0857 73.4132 44.1278 73.463 44.1718C73.6999 44.3808 73.9547 44.5899 74.219 44.7858C74.5335 45.0191 74.8408 45.2183 75.1358 45.3734C75.3172 45.4688 75.4923 45.5465 75.661 45.6049C76.5176 45.9011 82.0049 46.3759 86.1774 46.3911L86.3035 46.3917C92.6615 46.4005 96.6361 45.5766 97.1069 43.4339L97.16 43.1878C97.672 40.78 98.1238 37.5254 98.3608 34.1821C98.6669 29.8649 98.6089 25.6484 98.1092 21.8502C97.6074 18.036 95.2822 15.7209 91.7483 14.6327C90.4703 14.2392 89.1019 14.0295 87.7029 13.9636C86.7652 13.9195 85.9801 13.9423 85.2583 13.9993ZM87.6627 14.8145C88.9947 14.8772 90.2937 15.0763 91.4965 15.4466C94.7345 16.4437 96.8085 18.5087 97.2627 21.961C97.7543 25.6974 97.8114 29.858 97.5091 34.122C97.2668 37.5403 96.7976 40.8632 96.2729 43.2515C95.9411 44.7618 92.1485 45.548 86.3047 45.5398L86.0574 45.5387C81.9919 45.5149 76.6719 45.053 75.9407 44.8001C75.8154 44.7567 75.6791 44.6962 75.5338 44.6198C75.2818 44.4873 75.0101 44.3111 74.7283 44.1022C74.4851 43.9219 74.2486 43.7278 74.0287 43.5338L73.9403 43.4549L73.8442 43.367L71.2888 30.9137L71.2844 30.785C71.2609 29.992 71.3008 29.0087 71.4598 27.8533C71.698 26.1229 72.1591 24.4193 72.895 22.8296C74.9989 18.2846 78.967 15.3733 85.3272 14.8484C86.0144 14.794 86.7652 14.7722 87.6627 14.8145Z" fill="#5D80CB"/>
<path fill-rule="evenodd" clip-rule="evenodd" d="M72.6704 30.8496C73.581 31.7582 76.0285 36.9826 76.6262 39.4102C76.6262 39.4102 82.688 37.3659 91.3822 37.2381C91.3822 37.2381 96.1207 37.3375 98.0132 37.8912C98.0132 37.8912 97.6005 46.5086 93.7586 50.9806C89.9166 55.4384 81.8057 54.189 77.9922 51.5059C74.1787 48.8227 73.5526 47.545 72.6704 44.663C71.7881 41.7953 69.4545 31.0767 69.4545 31.0767L72.6704 30.8496Z" fill="#AEBFE5"/>
<path fill-rule="evenodd" clip-rule="evenodd" d="M70.1944 32.6951C70.1944 32.6951 67.6189 28.7201 66.637 24.603C65.6979 20.7273 67.505 16.667 71.1051 14.9208C74.1218 13.4727 76.3558 14.6085 76.3558 14.6085C76.3558 14.6085 73.1542 9.18531 77.9495 4.3868C79.6428 2.69738 81.9765 1.7604 84.3671 1.83138C90.2154 2.00174 92.0368 6.94222 92.0368 6.94222C92.0368 6.94222 98.2978 -4.54296 111.147 2.25729C112.442 2.93873 113.908 4.85529 114.605 6.1472C118.845 13.9554 104.858 23.1975 97.5863 23.9215C89.5893 24.7308 84.9078 23.3963 82.3322 21.4513C84.239 22.6012 82.0903 34.5265 70.1944 32.6951Z" fill="#5D80CB"/>
<path fill-rule="evenodd" clip-rule="evenodd" d="M85.656 42.6544C85.9569 42.6056 86.241 42.8018 86.3039 43.096L86.3136 43.148C86.3222 43.1907 86.3395 43.2613 86.3673 43.3513C86.425 43.538 86.5043 43.7244 86.6065 43.8944C86.9309 44.4341 87.3877 44.6855 88.1099 44.5581C88.4195 44.5035 88.7148 44.7096 88.7695 45.0184C88.8243 45.3272 88.6177 45.6219 88.3082 45.6765C87.0837 45.8926 86.1817 45.3962 85.6302 44.4784C85.4769 44.2234 85.3624 43.9544 85.2794 43.6858C85.229 43.5224 85.1993 43.3911 85.1855 43.306C85.1351 42.9965 85.3457 42.7047 85.656 42.6544Z" fill="#5D80CB"/>
<path fill-rule="evenodd" clip-rule="evenodd" d="M91.56 33.366C91.8629 33.3317 92.1371 33.5413 92.1858 33.8382L92.1897 33.8663L93.0434 41.3763C93.0874 41.7631 92.7381 42.0755 92.3614 41.9962L92.3357 41.9902L89.689 41.3088C89.3846 41.2304 89.2015 40.9207 89.2801 40.617C89.3562 40.3228 89.6499 40.1422 89.9449 40.2025L89.9734 40.209L91.8191 40.6841L91.0586 33.9943C91.0242 33.6921 91.2343 33.4184 91.5318 33.3699L91.56 33.366Z" fill="#5D80CB"/>
<path d="M94.5412 35.2506C94.9656 35.2506 95.3096 34.7166 95.3096 34.058C95.3096 33.3994 94.9656 32.8655 94.5412 32.8655C94.1168 32.8655 93.7728 33.3994 93.7728 34.058C93.7728 34.7166 94.1168 35.2506 94.5412 35.2506Z" fill="#5D80CB"/>
<path d="M87.1134 35.1228C87.5377 35.1228 87.8818 34.5889 87.8818 33.9303C87.8818 33.2716 87.5377 32.7377 87.1134 32.7377C86.689 32.7377 86.345 33.2716 86.345 33.9303C86.345 34.5889 86.689 35.1228 87.1134 35.1228Z" fill="#5D80CB"/>
<path fill-rule="evenodd" clip-rule="evenodd" d="M83.9956 27.2822C84.8359 26.6681 85.8645 26.3626 87.0551 26.54C87.3661 26.5863 87.5804 26.8753 87.534 27.1855C87.4876 27.4957 87.1979 27.7096 86.887 27.6633C86.0142 27.5332 85.2802 27.7512 84.6683 28.1985C84.4956 28.3247 84.3468 28.4598 84.2234 28.5935L84.1844 28.6366C84.1428 28.6836 84.1143 28.7191 84.0993 28.7393L84.0938 28.747C83.9138 29.0042 83.559 29.0671 83.3012 28.8875C83.0435 28.708 82.9805 28.3539 83.1604 28.0968L83.1874 28.0596C83.2326 27.9992 83.2987 27.9188 83.3859 27.8243C83.5573 27.6386 83.7603 27.4542 83.9956 27.2822Z" fill="#5D80CB"/>
<path fill-rule="evenodd" clip-rule="evenodd" d="M94.1832 26.3711C94.639 26.2999 95.1228 26.2976 95.5932 26.4136C96.3972 26.6119 97.0074 27.1303 97.2763 27.9987C97.3691 28.2984 97.2009 28.6164 96.9005 28.7089C96.6096 28.7986 96.3014 28.6439 96.1981 28.3617L96.1887 28.334C96.0447 27.8691 95.7558 27.6236 95.32 27.5162C95.0183 27.4418 94.6781 27.4434 94.3592 27.4932L94.2874 27.5053C94.2595 27.5104 94.2369 27.515 94.2205 27.5187L94.2006 27.5234C93.8964 27.6024 93.5856 27.4203 93.5065 27.1167C93.4274 26.8132 93.6099 26.5032 93.9142 26.4242L93.9575 26.4137C94.0139 26.4007 94.0901 26.3857 94.1832 26.3711Z" fill="#5D80CB"/>
<path fill-rule="evenodd" clip-rule="evenodd" d="M180.402 113.035C180.638 113.035 180.829 113.225 180.829 113.461C180.829 113.687 180.652 113.873 180.427 113.886L180.402 113.886H0.426887C0.191124 113.886 0 113.696 0 113.461C0 113.234 0.177716 113.048 0.401804 113.035L0.426887 113.035H180.402Z" fill="#5D80CB"/>
</svg>
