<svg width="95" height="54" viewBox="0 0 95 54" fill="none" xmlns="http://www.w3.org/2000/svg">
<path fill-rule="evenodd" clip-rule="evenodd" d="M26.8272 54C41.6435 54 53.6545 41.9116 53.6545 27C53.6545 12.0883 41.6435 0 26.8272 0C12.011 0 0 12.0883 0 27C0 41.9116 12.011 54 26.8272 54ZM26.985 47.0118C37.8794 47.0118 46.711 38.1234 46.711 27.1588C46.711 16.1943 37.8794 7.30588 26.985 7.30588C16.0907 7.30588 7.25914 16.1943 7.25914 27.1588C7.25914 38.1234 16.0907 47.0118 26.985 47.0118Z" fill="white"/>
<path d="M50.9596 46.0588L37.2931 38.1176C35.7836 37.2405 33.8533 37.761 32.9817 39.2803L32.5083 40.1056C31.6368 41.6248 32.154 43.5675 33.6635 44.4447L47.3301 52.3859C48.8396 53.263 50.7699 52.7425 51.6414 51.2232L52.1149 50.3979C52.9864 48.8787 52.4692 46.936 50.9596 46.0588Z" fill="#FDBA4D"/>
<path d="M72.3793 17.344V27.9083C72.3793 29.1143 72.1094 30.1715 71.5694 31.0798C71.0367 31.988 70.2637 32.6843 69.2503 33.1681C68.2368 33.6518 67.0385 33.8939 65.6551 33.8939C63.5692 33.8939 61.9492 33.358 60.7953 32.2859C59.6414 31.2063 59.0645 29.7323 59.0645 27.8636V17.344H62.493V27.3387C62.493 28.5969 62.7445 29.5201 63.2476 30.1082C63.7504 30.6963 64.5827 30.9904 65.7441 30.9904C66.8683 30.9904 67.682 30.6963 68.1851 30.1082C68.6954 29.5126 68.9508 28.582 68.9508 27.3164V17.344H72.3793ZM76.3516 33.6706V17.344H79.7912V33.6706H76.3516ZM94.4489 33.6706H82.3767V31.426L90.1547 20.2028H82.5875V17.344H94.2381V19.5775L86.4712 30.8117H94.4489V33.6706Z" fill="white"/>
<path d="M63.0046 40.8361C63.0046 41.316 62.9194 41.7191 62.7493 42.0447C62.581 42.3687 62.3333 42.606 62.006 42.7566L62.9825 43.854H61.881L61.1377 42.9383H61.074C60.4525 42.9383 59.9753 42.7566 59.6427 42.3938C59.3097 42.0307 59.1434 41.5098 59.1434 40.8303C59.1434 40.1509 59.3097 39.6328 59.6427 39.2755C59.9772 38.9162 60.4563 38.7364 61.0794 38.7364C61.7027 38.7364 62.179 38.9172 62.5081 39.278C62.8392 39.6392 63.0046 40.1585 63.0046 40.8361ZM60.0448 40.8361C60.0448 41.2919 60.1309 41.6353 60.3026 41.8662C60.4746 42.0968 60.7319 42.2124 61.074 42.2124C61.7601 42.2124 62.1032 41.7534 62.1032 40.8361C62.1032 39.9165 61.762 39.4568 61.0794 39.4568C60.7372 39.4568 60.4794 39.5731 60.3055 39.8056C60.1316 40.0366 60.0448 40.3799 60.0448 40.8361ZM67.1461 38.8006V41.4418C67.1461 41.7433 67.0786 42.0075 66.9435 42.2347C66.8106 42.4618 66.6171 42.6359 66.364 42.7566C66.1106 42.8776 65.8111 42.9383 65.4651 42.9383C64.9437 42.9383 64.5385 42.8042 64.25 42.5361C63.9616 42.2664 63.8173 41.8976 63.8173 41.4307V38.8006H64.6745V41.2995C64.6745 41.614 64.7373 41.8446 64.8633 41.9917C64.9889 42.1387 65.1969 42.2124 65.4872 42.2124C65.7684 42.2124 65.9717 42.1387 66.0976 41.9917C66.2251 41.843 66.2889 41.6102 66.2889 41.2938V38.8006H67.1461ZM68.1393 42.8824V38.8006H68.9991V42.8824H68.1393ZM72.6637 42.8824H69.6455V42.3211L71.59 39.5153H69.6982V38.8006H72.611V39.359L70.669 42.1676H72.6637V42.8824Z" fill="white"/>
<path d="M77.0936 42.8824H74.8329V38.8006H77.0936V39.2224H75.3044V40.5372H76.9854V40.9562H75.3044V42.458H77.0936V42.8824ZM81.1628 42.8824H80.6247L78.4085 39.4569H78.3861C78.4157 39.8587 78.4306 40.2275 78.4306 40.5623V42.8824H77.995V38.8006H78.5278L80.7383 42.2124H80.7608C80.757 42.1619 80.7488 42.0012 80.7358 41.7293C80.7229 41.4558 80.7181 41.2605 80.7219 41.1429V38.8006H81.1628V42.8824ZM84.0618 40.744H85.4404V42.7289C85.2258 42.7975 85.0077 42.8496 84.7858 42.8852C84.5639 42.9205 84.3067 42.9383 84.0144 42.9383C83.4006 42.9383 82.9224 42.755 82.5803 42.3881C82.2381 42.0196 82.0671 41.5041 82.0671 40.8415C82.0671 40.4171 82.1514 40.0458 82.3196 39.7275C82.4897 39.4076 82.734 39.1637 83.0521 38.9963C83.3699 38.8266 83.7427 38.7422 84.17 38.7422C84.6027 38.7422 85.0058 38.8222 85.3795 38.9823L85.1964 39.401C84.83 39.2447 84.4777 39.1665 84.1394 39.1665C83.6455 39.1665 83.2601 39.3146 82.9827 39.6103C82.7053 39.9063 82.5664 40.3167 82.5664 40.8415C82.5664 41.3926 82.6996 41.8103 82.966 42.0949C83.2342 42.3798 83.6272 42.5221 84.1448 42.5221C84.426 42.5221 84.7006 42.4897 84.9688 42.4246V41.1683H84.0618V40.744ZM86.4169 42.8824V38.8006H86.8884V42.8824H86.4169ZM91.1713 42.8824H90.6332L88.4169 39.4569H88.3945C88.4242 39.8587 88.439 40.2275 88.439 40.5623V42.8824H88.0035V38.8006H88.5362L90.7468 42.2124H90.7692C90.7654 42.1619 90.7572 42.0012 90.7443 41.7293C90.7313 41.4558 90.7266 41.2605 90.7304 41.1429V38.8006H91.1713V42.8824ZM94.5471 42.8824H92.2864V38.8006H94.5471V39.2224H92.7579V40.5372H94.4392V40.9562H92.7579V42.458H94.5471V42.8824Z" fill="#FDBA4D"/>
</svg>
