<svg width="401" height="227" viewBox="0 0 401 227" fill="none" xmlns="http://www.w3.org/2000/svg">
<path fill-rule="evenodd" clip-rule="evenodd" d="M113.239 227C175.779 227 226.478 176.184 226.478 113.5C226.478 50.8157 175.779 0 113.239 0C50.6989 0 0 50.8157 0 113.5C0 176.184 50.6989 227 113.239 227ZM113.905 197.624C159.891 197.624 197.169 160.259 197.169 114.168C197.169 68.0762 159.891 30.7118 113.905 30.7118C67.9198 30.7118 30.6412 68.0762 30.6412 114.168C30.6412 160.259 67.9198 197.624 113.905 197.624Z" fill="#5D80CB"/>
<path d="M215.103 193.618L157.416 160.235C151.044 156.548 142.896 158.736 139.218 165.123L137.219 168.592C133.54 174.979 135.724 183.145 142.096 186.832L199.783 220.215C206.155 223.902 214.302 221.714 217.981 215.327L219.98 211.858C223.658 205.472 221.475 197.305 215.103 193.618Z" fill="#FDBA4D" fill-opacity="0.8"/>
<path d="M305.517 72.9092V117.318C305.517 122.388 304.378 126.832 302.098 130.65C299.849 134.468 296.587 137.395 292.309 139.429C288.031 141.462 282.973 142.48 277.134 142.48C268.329 142.48 261.491 140.227 256.62 135.721C251.749 131.182 249.314 124.986 249.314 117.13V72.9092H263.786V114.924C263.786 120.213 264.848 124.094 266.971 126.566C269.094 129.038 272.607 130.275 277.509 130.275C282.255 130.275 285.689 129.038 287.813 126.566C289.967 124.062 291.045 120.15 291.045 114.83V72.9092H305.517ZM322.284 141.541V72.9092H336.803V141.541H322.284ZM398.674 141.541H347.716V132.105L380.548 84.9268H348.606V72.9092H397.784V82.2979L364.999 129.524H398.674V141.541Z" fill="#5D80CB"/>
<path d="M265.946 171.663C265.946 173.68 265.586 175.375 264.868 176.744C264.158 178.106 263.112 179.103 261.73 179.736L265.852 184.349H261.203L258.065 180.5H257.796C255.173 180.5 253.159 179.736 251.755 178.211C250.349 176.685 249.647 174.495 249.647 171.639C249.647 168.782 250.349 166.605 251.755 165.102C253.167 163.592 255.189 162.836 257.819 162.836C260.45 162.836 262.46 163.596 263.85 165.113C265.248 166.631 265.946 168.815 265.946 171.663ZM253.452 171.663C253.452 173.579 253.816 175.022 254.54 175.993C255.266 176.962 256.352 177.449 257.796 177.449C260.693 177.449 262.141 175.519 262.141 171.663C262.141 167.797 260.701 165.865 257.819 165.865C256.375 165.865 255.286 166.354 254.552 167.331C253.818 168.302 253.452 169.745 253.452 171.663ZM283.427 163.106V174.209C283.427 175.476 283.142 176.587 282.572 177.542C282.011 178.497 281.194 179.228 280.126 179.736C279.056 180.245 277.792 180.5 276.332 180.5C274.131 180.5 272.42 179.936 271.203 178.809C269.985 177.676 269.376 176.125 269.376 174.162V163.106H272.994V173.611C272.994 174.933 273.26 175.902 273.791 176.521C274.321 177.139 275.199 177.449 276.425 177.449C277.612 177.449 278.47 177.139 279.001 176.521C279.54 175.896 279.809 174.917 279.809 173.587V163.106H283.427ZM287.62 180.265V163.106H291.249V180.265H287.62ZM306.717 180.265H293.977V177.905L302.185 166.111H294.199V163.106H306.495V165.454L298.297 177.26H306.717V180.265Z" fill="#5D80CB"/>
<path d="M325.416 180.265H315.873V163.106H325.416V164.879H317.864V170.406H324.959V172.167H317.864V178.481H325.416V180.265ZM342.593 180.265H340.321L330.966 165.865H330.872C330.997 167.554 331.059 169.104 331.059 170.512V180.265H329.221V163.106H331.47L340.801 177.449H340.895C340.879 177.236 340.845 176.561 340.79 175.418C340.735 174.268 340.715 173.447 340.731 172.953V163.106H342.593V180.265ZM354.829 171.275H360.648V179.62C359.742 179.908 358.822 180.127 357.885 180.277C356.949 180.425 355.863 180.5 354.629 180.5C352.038 180.5 350.02 179.729 348.576 178.187C347.131 176.638 346.409 174.471 346.409 171.685C346.409 169.901 346.765 168.341 347.475 167.003C348.193 165.658 349.224 164.632 350.567 163.929C351.909 163.216 353.482 162.86 355.286 162.86C357.112 162.86 358.814 163.197 360.391 163.87L359.618 165.63C358.072 164.973 356.585 164.644 355.157 164.644C353.072 164.644 351.445 165.267 350.274 166.51C349.103 167.754 348.517 169.48 348.517 171.685C348.517 174.002 349.079 175.758 350.204 176.954C351.336 178.152 352.995 178.75 355.179 178.75C356.366 178.75 357.525 178.614 358.658 178.341V173.059H354.829V171.275ZM364.77 180.265V163.106H366.76V180.265H364.77ZM384.839 180.265H382.567L373.212 165.865H373.118C373.243 167.554 373.306 169.104 373.306 170.512V180.265H371.467V163.106H373.716L383.047 177.449H383.141C383.125 177.236 383.091 176.561 383.036 175.418C382.982 174.268 382.962 173.447 382.978 172.953V163.106H384.839V180.265ZM399.088 180.265H389.546V163.106H399.088V164.879H391.536V170.406H398.633V172.167H391.536V178.481H399.088V180.265Z" fill="#FDBA4D"/>
</svg>
