<svg width="100" height="100" viewBox="0 0 100 100" fill="none" xmlns="http://www.w3.org/2000/svg">
<circle cx="50" cy="50" r="50" fill="#F5F5F5"/>
<path d="M25 80C25 80 20 80 20 75C20 70 25 55 50 55C75 55 80 70 80 75C80 80 75 80 75 80H25ZM50 50C53.9782 50 57.7936 48.4196 60.6066 45.6066C63.4197 42.7936 65 38.9782 65 35C65 31.0218 63.4197 27.2064 60.6066 24.3934C57.7936 21.5804 53.9782 20 50 20C46.0218 20 42.2064 21.5804 39.3934 24.3934C36.5804 27.2064 35 31.0218 35 35C35 38.9782 36.5804 42.7936 39.3934 45.6066C42.2064 48.4196 46.0218 50 50 50Z" fill="#5D80CB"/>
</svg>
